<svg xmlns="http://www.w3.org/2000/svg" viewBox="0 0 512 512" width="512" height="512">
  <defs>
    <linearGradient id="bg" x1="0" y1="0" x2="1" y2="1">
      <stop offset="0%" stop-color="#4F46E5"/>
      <stop offset="100%" stop-color="#7C3AED"/>
    </linearGradient>
  </defs>
  <!-- Background circle -->
  <circle cx="256" cy="256" r="240" fill="url(#bg)"/>
  <!-- Speech bubble -->
  <path d="M160 180 Q160 150 190 150 L322 150 Q352 150 352 180 L352 260 Q352 290 322 290 L260 290 L210 340 L220 290 L190 290 Q160 290 160 260 Z" fill="white" opacity="0.95"/>
  <!-- Sound waves inside bubble -->
  <path d="M205 200 Q230 190 230 220 Q230 250 205 240" fill="none" stroke="#4F46E5" stroke-width="6" stroke-linecap="round"/>
  <path d="M195 190 Q240 175 240 220 Q240 265 195 250" fill="none" stroke="#4F46E5" stroke-width="5" stroke-linecap="round" opacity="0.6"/>
  <path d="M305 205 L320 205 M305 220 L325 220 M305 235 L320 235" stroke="#4F46E5" stroke-width="5" stroke-linecap="round" opacity="0.5"/>
</svg>
